<svg xmlns="http://www.w3.org/2000/svg" viewBox="-80 -80 1160 1160"><rect x="-80" y="-80" width="1160" height="1160" fill="#e7e2d5"/><path fill="#1b1a17" transform="translate(0 880) scale(1 -1)" d="M320 247Q335 252 362.0 249.0Q389 246 404 237Q425 224 424.5 187.5Q424 151 403 145Q393 143 384 148Q337 178 314 202Q303 213 301.0 217.5Q299 222 302 230Q306 242 320 247ZM468 793Q483 796 522.0 793.0Q561 790 589 785Q616 778 629.5 767.0Q643 756 639 744Q637 736 635.0 721.5Q633 707 629 699L617 669Q608 648 602.0 629.5Q596 611 586.5 586.0Q577 561 582.0 559.0Q587 557 587.0 552.5Q587 548 595 539Q603 530 601.5 515.5Q600 501 589 490Q582 482 575.5 481.0Q569 480 544 481H516Q517 480 522 477Q534 473 543 465L565 447Q578 437 581 421Q582 419 582 414Q585 396 593.0 393.5Q601 391 645 393Q656 393 662 393Q735 395 766 402Q804 409 828.5 403.5Q853 398 873 377Q891 356 869 330Q855 317 844.5 314.5Q834 312 812 318Q787 324 721.5 326.0Q656 328 625 325L593 321L591 299Q583 242 589 150Q592 92 584 60Q577 34 567.5 16.0Q558 -2 537 -31Q506 -71 492.0 -80.0Q478 -89 447 -88Q438 -87 423.0 -72.5Q408 -58 408 -52Q408 -47 394.5 -33.5Q381 -20 376 -20Q372 -20 357 -3L331 26Q320 40 320.0 45.5Q320 51 312 56Q306 59 311 58Q321 58 361 43Q393 32 420 29Q439 28 445.0 28.5Q451 29 457 35Q473 54 487 94Q492 111 493.0 130.5Q494 150 492 214Q490 309 488.5 310.5Q487 312 444.0 305.5Q401 299 365 294Q278 284 252.5 276.5Q227 269 204.5 258.5Q182 248 179 242Q177 234 160.5 236.5Q144 239 131 248Q122 255 120.0 259.0Q118 263 121 275Q123 292 127 298Q135 307 212.5 328.5Q290 350 352 359Q396 365 421.5 371.0Q447 377 469 380L491 383V403Q492 422 493.0 439.0Q494 456 500 469L508 484L487 482Q464 478 447 473Q378 449 359 449Q347 449 335.5 458.5Q324 468 326 481Q328 489 333.0 494.0Q338 499 353 508Q370 517 406.0 530.0Q442 543 464 547Q472 550 475.5 553.0Q479 556 482 568Q487 586 488 598Q489 607 486.0 609.0Q483 611 470 609Q447 608 412.5 601.0Q378 594 372 589Q356 578 339 593Q324 603 329.0 618.0Q334 633 355 643Q382 656 462 670Q485 675 491.0 680.0Q497 685 499 701Q503 719 506 735L509 751H488Q399 753 357 733Q329 719 324 739Q322 753 348.0 766.0Q374 779 416 785Q455 789 468 793Z"/></svg>
